<?xml version="1.0" encoding="UTF-8" standalone="no"?>
<svg xmlns:dc="http://purl.org/dc/elements/1.1/" xmlns:cc="http://creativecommons.org/ns#" xmlns:rdf="http://www.w3.org/1999/02/22-rdf-syntax-ns#" xmlns:svg="http://www.w3.org/2000/svg" xmlns="http://www.w3.org/2000/svg" xmlns:xlink="http://www.w3.org/1999/xlink" xmlns:sodipodi="http://sodipodi.sourceforge.net/DTD/sodipodi-0.dtd" xmlns:inkscape="http://www.inkscape.org/namespaces/inkscape" width="1000" height="1000" viewBox="0 0 264.58333 264.58334" version="1.1" id="svg8" inkscape:version="1.0.1 (3bc2e813f5, 2020-09-07)" sodipodi:docname="logobg.svg">
  <defs id="defs2">
    <linearGradient inkscape:collect="always" id="linearGradient839">
      <stop style="stop-color:#0078ff;stop-opacity:1;" offset="0" id="stop835" />
      <stop style="stop-color:#0000ff;stop-opacity:1" offset="1" id="stop837" />
    </linearGradient>
    <linearGradient inkscape:collect="always" xlink:href="#linearGradient839" id="linearGradient841" x1="1.9073486e-06" y1="132.29166" x2="264.58333" y2="132.29166" gradientUnits="userSpaceOnUse" gradientTransform="matrix(0.97786001,0,0,0.97786007,2.9289412,2.9289413)" />
    <linearGradient inkscape:collect="always" xlink:href="#linearGradient839" id="linearGradient865" x1="190.23459" y1="132.03839" x2="66.307961" y2="131.49152" gradientUnits="userSpaceOnUse" gradientTransform="matrix(-1.0867393,0,0,0.96763643,271.58074,6.2930973)" />
  </defs>
  <sodipodi:namedview id="base" pagecolor="#ffffff" bordercolor="#666666" borderopacity="1.0" inkscape:pageopacity="0.0" inkscape:pageshadow="2" inkscape:zoom="0.98994949" inkscape:cx="400" inkscape:cy="523.06019" inkscape:document-units="mm" inkscape:current-layer="layer1" inkscape:document-rotation="0" showgrid="false" units="px" inkscape:window-width="2560" inkscape:window-height="1377" inkscape:window-x="1912" inkscape:window-y="-8" inkscape:window-maximized="1" />
  <metadata id="metadata5">
    <rdf:RDF>
      <cc:Work rdf:about="">
        <dc:format>image/svg+xml</dc:format>
        <dc:type rdf:resource="http://purl.org/dc/dcmitype/StillImage" />
        <dc:title />
      </cc:Work>
    </rdf:RDF>
  </metadata>
  <g inkscape:label="Bg" inkscape:groupmode="layer" id="layer1" sodipodi:insensitive="true">
    <rect style="fill:#000000;fill-opacity:1;stroke:url(#linearGradient841);stroke-width:7.81934;stroke-linecap:butt;stroke-miterlimit:4;stroke-dasharray:none" id="rect833" width="256.76398" height="256.76398" x="3.9096732" y="3.9096732" sodipodi:insensitive="true" />
  </g>
  <g inkscape:groupmode="layer" id="layer2" inkscape:label="File" sodipodi:insensitive="true">
    <path style="fill:url(#linearGradient865);fill-opacity:1;stroke:#0164ff;stroke-width:1.3566;stroke-linecap:butt;stroke-linejoin:miter;stroke-miterlimit:4;stroke-dasharray:none;stroke-opacity:1" d="M 199.1224,58.228678 175.05177,34.601646 65.37845,34.455349 65.29627,230.12815 199.2867,229.98183 Z" id="path857" sodipodi:nodetypes="cccccc" sodipodi:insensitive="true" />
    <path d="m 142.2675,84.893749 -34.82668,5.709865 -0.0335,36.563036 c -0.0116,20.11101 -0.0446,36.56301 -0.078,36.56301 -0.0335,0 -0.32319,-0.18069 -0.65753,-0.39752 -1.57138,-1.02994 -4.25719,-1.59008 -7.678557,-1.59008 -4.390948,0 -8.982496,1.66235 -13.373446,4.82448 -3.421371,2.46644 -5.750572,5.47495 -6.619849,8.55575 -0.289757,1.02092 -0.256328,3.32473 0.05571,4.26433 1.014145,3.01757 3.93401,5.18586 7.87918,5.85442 1.159031,0.19877 3.432518,0.2349 4.73643,0.0813 5.917748,-0.72278 11.902352,-3.83067 15.323722,-7.99561 1.27047,-1.5359 2.15089,-3.17116 2.69696,-5.01421 0.18946,-0.64145 0.20061,-2.4032 0.22289,-36.90633 l 0.0335,-36.237798 32.46403,-5.303313 c 17.84242,-2.927188 32.48634,-5.312331 32.54207,-5.303298 0.0446,0 0.078,14.437279 0.078,32.081869 v 32.07287 l -0.46806,-0.30717 c -1.80542,-1.18354 -4.14579,-1.70754 -7.77889,-1.71657 -1.60481,0 -2.13976,0.027 -3.04247,0.18972 -5.40509,0.9667 -11.12224,4.25529 -14.51018,8.33895 -0.79126,0.94861 -1.72741,2.50256 -2.16204,3.55961 -0.95843,2.35803 -0.88042,4.93289 0.20059,6.86631 1.32621,2.36706 4.35752,4.14686 7.84576,4.60764 4.46896,0.58723 10.64303,-1.05704 14.96712,-3.97523 3.81144,-2.57486 6.09607,-5.38462 7.1548,-8.80874 l 0.30089,-0.94862 0.0224,-40.6828 0.0336,-40.673772 -0.24519,0.0091 c -0.14487,0 -15.92556,2.574856 -35.083,5.718901 z" id="path845" style="display:inline;fill:#000000;fill-opacity:1;stroke:none;stroke-width:1.46031;stroke-miterlimit:4;stroke-dasharray:none;stroke-opacity:1" sodipodi:insensitive="true" />
    <path style="fill:#0064ff;fill-opacity:1;stroke:#000000;stroke-width:0.529167;stroke-linecap:butt;stroke-linejoin:miter;stroke-miterlimit:4;stroke-dasharray:none;stroke-opacity:1" d="m 175.05177,35.130811 -0.39114,23.26758 23.9326,-0.169715" id="path870" sodipodi:nodetypes="ccc" sodipodi:insensitive="true" />
  </g>
</svg>
